<svg viewBox="0 0 167 29" xmlns="http://www.w3.org/2000/svg" xmlns:xlink="http://www.w3.org/1999/xlink">
    <defs>
        <path d="M58.76 4.678c-.037-.335-.171-.409-.515-.409h-4.147c-.248 0-.44.056-.535.427-.516 1.82-2.541 8.878-2.541 8.878a35.175 35.175 0 0 0-.707 3.046 5.952 5.952 0 0 0-.134-.669c-.038-.222-.096-.427-.134-.668a6.451 6.451 0 0 0-.172-.725c-.057-.26-.153-.557-.248-.91 0 0-1.969-7.169-2.465-8.97-.134-.409-.364-.409-.631-.409h-4.128c-.325 0-.42.167-.44.427-.248 2.545-1.509 15.379-1.757 17.886-.02.316.153.408.477.427h2.886c.306 0 .516-.056.554-.409.134-1.838.65-9.379.65-9.379.038-.576.057-1.133.076-1.69.039-.52.058-1.04.058-1.56.095.501.21 1.04.363 1.616.153.594.286 1.114.42 1.597 0 0 2.16 7.596 2.694 9.435.096.279.21.409.516.409h2.485c.4-.019.496-.056.611-.39.573-1.876 3-9.863 3-9.863.172-.575.306-1.058.402-1.467.095-.408.21-.873.324-1.411 0 .501.02 1.003.039 1.504.019.502.057 1.04.095 1.634 0 0 .612 7.931.707 9.677.02.316.191.334.42.334h3.115c.192 0 .383-.093.344-.408-.267-2.49-1.433-15.472-1.681-17.96Zm15.212 4.531h-3.115c-.344 0-.401.056-.497.353-.478 1.43-2.064 6.24-2.064 6.24-.114.317-.229.67-.325 1.022-.095.353-.19.65-.248.892-.038.167-.076.371-.134.613-.057.26-.114.483-.153.705a11.52 11.52 0 0 1-.114.595c-.02.167-.039.26-.039.278l-.764-2.86s-1.892-6.055-2.389-7.67c-.095-.298-.305-.372-.573-.335-.745.075-2.236.242-2.98.335-.364.037-.402.222-.326.445.784 2.248 4.644 13.187 4.644 13.187h.955a8.558 8.558 0 0 0-.229.52 4.03 4.03 0 0 1-.172.39c-.057.112-.115.223-.191.334a3.096 3.096 0 0 1-.249.372 4.471 4.471 0 0 1-1.07 1.133c-.286.204-.65.371-1.07.52-.286.093-.554.186-.821.26-.306.093-.344.334-.23.557.249.464.67 1.207.898 1.634.134.242.383.298.612.26.497-.092.974-.222 1.452-.371a6.957 6.957 0 0 0 1.624-.817c.268-.186.516-.39.746-.65.229-.26.44-.557.669-.91.21-.353.44-.78.668-1.263.23-.502.459-1.077.707-1.746 0 0 4.243-11.274 5.103-13.595.152-.409-.077-.428-.325-.428Zm14.523-4.94h-3.23c-.382 0-.44.112-.44.427v6.854H79.17V4.696c0-.39-.19-.445-.573-.427h-2.885c-.42 0-.478.13-.478.446v17.867c0 .334.153.427.363.427h3.134c.23 0 .42-.056.42-.409v-7.949h5.657v7.93c0 .298.19.428.44.428h3.19c.268 0 .383-.149.383-.409V4.696c.038-.353-.077-.427-.325-.427Zm23.026 4.662a3.39 3.39 0 0 0-.688-.056c-.726 0-1.356.204-1.93.594a6.815 6.815 0 0 0-1.471 1.375c-.057-.743-.249-1.393-.592-1.969l-3.402.854c.153.39.287.93.382 1.616.096.688.153 1.486.153 2.433V22.6c0 .186.096.41.401.41h2.962c.249 0 .42-.075.42-.41v-9.36c.708-.78 1.472-1.152 2.313-1.152.191 0 .382 0 .573.037.344.056.574.112.688-.297.191-.576.497-1.523.688-2.117.21-.483-.057-.669-.497-.78Zm3.344-5.758c-.668 0-1.223.223-1.681.65a2.102 2.102 0 0 0-.688 1.598c0 .631.23 1.151.688 1.597.458.427.993.65 1.643.65.669 0 1.223-.223 1.663-.65.458-.427.688-.966.688-1.597 0-.632-.23-1.152-.67-1.598-.458-.445-.993-.65-1.643-.65Zm1.49 5.758c-.725.111-2.33.353-3.076.464-.344.056-.363.167-.363.372v12.852c0 .297.191.371.402.371h3.057c.268 0 .325-.074.325-.352V9.228c0-.316-.115-.334-.344-.297Zm10.148 11.924c-.057-.242-.306-.242-.459-.205-.172.037-.305.075-.42.093a3.043 3.043 0 0 1-.554.074c-.67 0-1.109-.148-1.319-.445-.21-.297-.325-.892-.325-1.765V11.68h2.427s.497-1.263.765-1.988c.133-.39-.096-.483-.306-.483h-2.886c0-.705.02-1.411.058-2.135.019-.446.057-.873.095-1.282.077-.669-.42-.613-.726-.557-1.127.26-3.057.724-3.057.724-.077.52-.115 1.022-.134 1.505-.02.482-.02 1.077-.02 1.745h-1.452v2.49h1.453v7.503c0 .315 0 .594.019.798 0 .205.019.39.019.52 0 .149.038.279.076.409.039.13.077.26.134.409.23.612.688 1.095 1.395 1.467.707.371 1.548.557 2.503.557.918 0 1.854-.167 2.81-.52.133-.056.248-.149.21-.372-.039-.427-.21-1.188-.306-1.615Zm12.918-.019c-.172-.204-.325-.427-.402-.669a2.47 2.47 0 0 1-.172-.761c-.019-.279-.019-.613-.019-.984l.077-4.644v-.928c0-.26-.02-.465-.038-.65-.02-.186-.058-.335-.077-.465a1.702 1.702 0 0 0-.134-.408c-.286-.78-.821-1.375-1.624-1.783-.803-.409-1.815-.613-3.038-.613-.67 0-1.3.056-1.93.186-.63.13-1.3.334-2.026.612-.516.205-.936.372-1.28.54-.191.092-.402.203-.612.315-.344.204-.305.464-.21.687.287.464.764 1.226 1.07 1.727.23.335.478.297.765.167.611-.352 1.203-.65 1.758-.854.707-.278 1.356-.408 1.949-.408.707 0 1.146.148 1.376.445.21.297.324.836.324 1.598v.557c-.152-.019-.286-.019-.42-.019h-.44c-2.312 0-4.07.39-5.216 1.152-1.166.761-1.74 1.968-1.74 3.603 0 1.393.421 2.451 1.281 3.194.84.743 2.083 1.115 3.707 1.115 1.204 0 2.179-.26 2.924-.762.153-.093.306-.204.44-.316.133-.13.286-.26.439-.408.191.353.459.687.84.966.211.167.44.315.689.445.363.205.63.13.917-.167.382-.408.975-1.04 1.3-1.448.133-.168.21-.41-.039-.595a4.66 4.66 0 0 1-.44-.427Zm-4.376-.891a3.338 3.338 0 0 1-.937.705 2.35 2.35 0 0 1-1.05.242c-.497 0-.899-.167-1.205-.502-.305-.334-.458-.761-.458-1.3 0-.836.267-1.393.783-1.671.516-.279 1.434-.428 2.752-.428h.172l-.057 2.954Zm17.924-8.21c.535 0 .994-.074 1.414-.241.287-.112.593-.279.898-.502.249-.167.268-.445.096-.668-.268-.372-.65-.947-.956-1.375-.21-.352-.4-.445-.783-.204-.325.223-.65.409-1.013.557a4.289 4.289 0 0 1-1.567.316c-.248 0-.497-.019-.783-.074-.268-.056-.612-.13-1.013-.223a14.38 14.38 0 0 0-1.395-.279 8.824 8.824 0 0 0-1.223-.074c-.917 0-1.758.111-2.522.334-.765.223-1.395.539-1.93.948a4.138 4.138 0 0 0-1.223 1.467 4.219 4.219 0 0 0-.44 1.913c0 2.043 1.032 3.324 3.115 3.826-.612.148-1.09.297-1.433.483-.344.185-.612.371-.784.557-.172.204-.306.408-.363.613a2.427 2.427 0 0 0-.076.65c0 .464.095.854.305 1.151.192.297.459.52.803.65.669.279 1.815.409 3.478.428l1.605.018c.745.019 1.395.13 1.892.372.516.222.764.65.764 1.281 0 .279-.076.557-.248.799a2.17 2.17 0 0 1-.688.613c-.306.185-.65.297-1.051.371-.401.056-.84.093-1.338.093-.879 0-1.567-.149-2.025-.427-.459-.279-.688-.706-.688-1.263 0-.204 0-.353.019-.464.019-.112.057-.465-.287-.428h-3.096a4.772 4.772 0 0 0-.229.52c-.076.205-.114.502-.114.873 0 .929.4 1.746 1.184 2.452.67.576 1.49.966 2.465 1.17.975.204 1.988.316 3.02.316 1.127 0 2.216-.13 3.23-.409 1.012-.278 1.853-.724 2.483-1.374.765-.799 1.166-1.746 1.166-2.86 0-1.226-.42-2.21-1.242-2.935a4.467 4.467 0 0 0-1.758-.947c-.669-.186-1.529-.279-2.637-.297l-2.045-.019c-.42 0-.63-.111-.63-.316 0-.204.133-.39.382-.557.248-.167.63-.371 1.127-.576.153.019.248.019.306.019h.248c.765 0 1.49-.111 2.14-.316.65-.204 1.223-.483 1.701-.854.478-.353.86-.799 1.109-1.3a3.474 3.474 0 0 0 .4-1.653c0-.465-.076-.873-.21-1.245a3.626 3.626 0 0 0-.63-1.021c.115.018.268.037.44.056.248.055.439.055.63.055Zm-6.382 3.882c-.67 0-1.204-.149-1.606-.464-.42-.297-.63-.817-.63-1.505 0-.65.191-1.151.592-1.504.402-.353.956-.539 1.663-.539.726 0 1.28.186 1.681.539.402.353.612.854.612 1.504.019 1.319-.764 1.97-2.312 1.97Zm19.835 1.616c.669 0 .573-.836.573-.836 0-1.449-.153-2.656-.458-3.622a5.867 5.867 0 0 0-1.453-2.414c-.477-.464-1.07-.817-1.815-1.077-.745-.26-1.529-.372-2.37-.372-.955 0-1.815.149-2.541.465-.745.297-1.414.78-2.007 1.393a6.086 6.086 0 0 0-1.395 2.321c-.286.855-.42 1.913-.42 3.158 0 1.077.153 2.061.478 2.934.325.873.783 1.634 1.376 2.247a6.425 6.425 0 0 0 2.159 1.449c.84.334 1.796.52 2.828.52 1.873 0 3.574-.557 5.14-1.671.23-.15.268-.372.096-.576-.248-.372-.688-1.003-.955-1.412-.23-.371-.478-.278-.67-.13-1.05.725-2.159 1.096-3.305 1.096-.975 0-1.739-.279-2.255-.854-.535-.576-.783-1.393-.783-2.49v-.11c-.02-.02 5.885-.02 7.777-.02Zm-7.74-2.693c0-.966.192-1.709.593-2.229.401-.52.956-.761 1.663-.761.745 0 1.3.278 1.662.817.172.26.287.538.363.836.058.297.096.724.096 1.244v.167h-4.395v-.074h.019ZM102.1 12.775a5.867 5.867 0 0 0-1.452-2.414c-.478-.464-1.07-.817-1.815-1.077-.745-.26-1.529-.372-2.37-.372-.955 0-1.815.149-2.541.465-.746.297-1.414.78-2.007 1.393a6.086 6.086 0 0 0-1.395 2.321c-.286.855-.42 1.913-.42 3.158 0 1.077.153 2.061.478 2.934.324.873.783 1.634 1.375 2.247a6.425 6.425 0 0 0 2.16 1.449c.84.334 1.796.52 2.828.52 1.873 0 3.573-.557 5.14-1.671.23-.15.268-.372.096-.576-.249-.372-.688-1.003-.956-1.412-.229-.371-.477-.278-.668-.13-1.051.725-2.16 1.096-3.306 1.096-.975 0-1.74-.279-2.255-.854-.535-.576-.784-1.393-.784-2.49v-.11h7.797c.669 0 .573-.836.573-.836 0-1.468-.153-2.675-.478-3.64Zm-3.458 1.82h-4.395v-.055c0-.966.19-1.709.592-2.229.401-.52.955-.761 1.662-.761.746 0 1.3.278 1.663.817.172.26.287.538.363.836.057.297.096.724.096 1.244v.149h.019ZM20.275.073c7.051.408 12.631 6.463 12.631 13.41 0 6.945-5.58 13.019-12.631 13.409 10.204.873 16.51-6.055 16.51-13.41 0-7.336-6.287-14.264-16.51-13.41ZM3.879 13.5C3.88 6.554 9.46.48 16.51.09 6.42-.82 0 6.145 0 13.5s6.574 14.45 16.51 13.41C9.46 26.5 3.88 20.445 3.88 13.5Zm27.938 0C31.74 6.294 25.797.443 18.383.443S4.968 6.293 4.968 13.5c0 6.296 4.587 11.552 10.663 12.74 2.026.39 2.313-4.624 1.758-7.967-.019 0-.611-.037-.821-.037-.42-.019-.803.446-1.07.538-.44.149-.516-.26-.822-.26-.268 0-.65.409-1.663.223-1.032-.185-1.356-1.095-1.356-1.095l-.306-.15c-1.051-.26-1.108-1.355-1.108-1.43-.058-.538.917-.946.65-1.114-1.186-.724-.803-1.3-.784-1.337.153-.39.726-1.226.516-1.356-.574-.352.382-2.451 1.204-3.027.133-.669.86-1.746 1.567-1.969-.039-.743 1.05-1.17 1.05-1.17.765-.241.23-.836 1.682-.743.344.019.325-.353 1.166-.371.248 0 .516-.186 1.261-.186 1.3-.056 1.242.799 1.682.65.554-.186 2.388.687 2.58 2.507.821-.055 3 2.266 2.942 3.975 1.433 1.56-.516 3.027-.592 3.325.057.167.344.873.23 1.411-.135.65-.975 1.337-1.014 1.375-.592.408-1.012.872-1.72.742-.726-.13-.592-.78-.802-.928a2.709 2.709 0 0 1-2.045.668 9.032 9.032 0 0 0-.535-.055c-.42 2.451-.363 7.93 1.414 7.93 5.37-.835 11.198-5.887 11.122-12.89Z"
              id="full_logo_svg__a"></path>
    </defs>
    <use fill="#aaa" xlink:href="#full_logo_svg__a" fill-rule="evenodd"></use>
</svg>
